<mxfile host="app.diagrams.net" modified="2021-12-08T11:45:36.391Z" agent="5.0 (Macintosh; Intel Mac OS X 10_15_6) AppleWebKit/605.1.15 (KHTML, like Gecko) Version/14.0.2 Safari/605.1.15" etag="MwUSZ8FLFZZkLJwka64Z" version="15.9.1" type="github">
  <diagram id="h1I-jIf15oPsMgG-KGj4" name="Page-1">
    <mxGraphModel dx="946" dy="645" grid="1" gridSize="10" guides="1" tooltips="1" connect="1" arrows="1" fold="1" page="1" pageScale="1" pageWidth="827" pageHeight="1169" math="0" shadow="0">
      <root>
        <mxCell id="0" />
        <mxCell id="1" parent="0" />
        <mxCell id="gv34mnI8brFqdIba_EGr-3" value="" style="whiteSpace=wrap;html=1;aspect=fixed;strokeColor=#000000;fillColor=none;" vertex="1" parent="1">
          <mxGeometry x="80" y="120" width="400" height="400" as="geometry" />
        </mxCell>
        <mxCell id="gv34mnI8brFqdIba_EGr-4" value="-38.84" style="text;html=1;strokeColor=none;fillColor=none;align=center;verticalAlign=middle;whiteSpace=wrap;rounded=0;" vertex="1" parent="1">
          <mxGeometry x="35" y="500" width="40" height="30" as="geometry" />
        </mxCell>
        <mxCell id="gv34mnI8brFqdIba_EGr-5" value="-37.80" style="text;html=1;strokeColor=none;fillColor=none;align=center;verticalAlign=middle;whiteSpace=wrap;rounded=0;" vertex="1" parent="1">
          <mxGeometry x="35" y="110" width="40" height="30" as="geometry" />
        </mxCell>
        <mxCell id="gv34mnI8brFqdIba_EGr-6" value="-37.81" style="text;html=1;strokeColor=none;fillColor=none;align=center;verticalAlign=middle;whiteSpace=wrap;rounded=0;" vertex="1" parent="1">
          <mxGeometry x="35" y="210" width="40" height="20" as="geometry" />
        </mxCell>
        <mxCell id="gv34mnI8brFqdIba_EGr-7" value="-37.82" style="text;html=1;strokeColor=none;fillColor=none;align=center;verticalAlign=middle;whiteSpace=wrap;rounded=0;" vertex="1" parent="1">
          <mxGeometry x="35" y="310" width="40" height="20" as="geometry" />
        </mxCell>
        <mxCell id="gv34mnI8brFqdIba_EGr-8" value="-37.83" style="text;html=1;strokeColor=none;fillColor=none;align=center;verticalAlign=middle;whiteSpace=wrap;rounded=0;" vertex="1" parent="1">
          <mxGeometry x="35" y="410" width="40" height="20" as="geometry" />
        </mxCell>
        <mxCell id="gv34mnI8brFqdIba_EGr-9" value="144.94" style="text;html=1;strokeColor=none;fillColor=none;align=center;verticalAlign=middle;whiteSpace=wrap;rounded=0;" vertex="1" parent="1">
          <mxGeometry x="60" y="520" width="40" height="30" as="geometry" />
        </mxCell>
        <mxCell id="gv34mnI8brFqdIba_EGr-10" value="144.98" style="text;html=1;strokeColor=none;fillColor=none;align=center;verticalAlign=middle;whiteSpace=wrap;rounded=0;" vertex="1" parent="1">
          <mxGeometry x="460" y="520" width="40" height="30" as="geometry" />
        </mxCell>
        <mxCell id="gv34mnI8brFqdIba_EGr-11" value="144.96" style="text;html=1;strokeColor=none;fillColor=none;align=center;verticalAlign=middle;whiteSpace=wrap;rounded=0;" vertex="1" parent="1">
          <mxGeometry x="260" y="520" width="40" height="30" as="geometry" />
        </mxCell>
        <mxCell id="gv34mnI8brFqdIba_EGr-12" value="144.95" style="text;html=1;strokeColor=none;fillColor=none;align=center;verticalAlign=middle;whiteSpace=wrap;rounded=0;" vertex="1" parent="1">
          <mxGeometry x="160" y="520" width="40" height="30" as="geometry" />
        </mxCell>
        <mxCell id="gv34mnI8brFqdIba_EGr-13" value="144.97" style="text;html=1;strokeColor=none;fillColor=none;align=center;verticalAlign=middle;whiteSpace=wrap;rounded=0;" vertex="1" parent="1">
          <mxGeometry x="360" y="520" width="40" height="30" as="geometry" />
        </mxCell>
      </root>
    </mxGraphModel>
  </diagram>
</mxfile>
